<?xml version="1.0" encoding="UTF-8"?>
<svg width="100px" height="100px" viewBox="0 0 100 100" version="1.1" xmlns="http://www.w3.org/2000/svg" xmlns:xlink="http://www.w3.org/1999/xlink">
    <!-- Generator: Sketch 46.2 (44496) - http://www.bohemiancoding.com/sketch -->
    <title>icon</title>
    <desc>Created with Sketch.</desc>
    <defs></defs>
    <g id="Icons" stroke="none" stroke-width="1" fill="none" fill-rule="evenodd">
        <g id="icon">
            <circle id="Combined-Shape" fill="#F0F0F0" cx="50" cy="50" r="50"></circle>
            <g id="Group-2" transform="translate(22.000000, 32.000000)" fill-rule="nonzero">
                <g id="Group">
                    <path d="M16.6864805,9.4984127 L17.8545588,4.31746032 C18.2262201,2.86031746 18.2793146,2.53650794 18.544787,1.18730159 L18.6509759,1.07936508 C20.1907155,1.07936508 20.6685657,1.07936508 22.4737777,1.02539683 L22.5799666,1.13333333 C22.5799666,2.6984127 22.6330611,3.07619048 22.6861556,5.12698413 L22.7923445,8.04126984 C22.9516279,11.5492063 23.0047224,12.3587302 23.1109113,14.1936508 L23.0047224,14.3015873 C21.6242662,14.3015873 21.1995104,14.3015873 20.137621,14.3555556 L20.0314321,14.247619 C20.0314321,11.9269841 20.0314321,11.6031746 19.9783376,9.01269841 L19.9252432,3.99365079 L18.544787,10.0920635 C18.0669367,12.1428571 17.9076533,13.1142857 17.6952754,14.1936508 L17.5890865,14.3015873 C16.633386,14.3015873 16.3148192,14.3015873 15.3591188,14.3555556 L15.2529298,14.247619 C14.9874575,13.0603175 14.6688907,11.6031746 14.4034183,10.3079365 L13.0229621,4.15555556 L12.9167732,8.47301587 C12.8105842,12.3587302 12.8105842,12.7904762 12.8105842,14.1936508 L12.7043953,14.3015873 C11.6956004,14.3015873 11.3770336,14.3015873 10.3151442,14.3555556 L10.2089552,14.247619 C10.3682386,11.1714286 10.3682386,10.847619 10.527522,8.7968254 L10.6868055,4.6952381 C10.7398999,2.91428571 10.7398999,2.05079365 10.7929944,1.18730159 L10.8991833,1.07936508 C12.5451119,1.07936508 13.0229621,1.07936508 14.8281741,1.02539683 L14.934363,1.13333333 C15.1467409,2.1047619 15.1467409,2.15873016 15.5714967,4.15555556 L16.6864805,9.4984127 Z M29.3760587,13.2761905 C28.8451141,13.815873 28.048697,14.5174603 26.8275242,14.5174603 C24.8630288,14.5174603 24.650651,12.6825397 24.5975565,12.2507937 C24.544462,11.7111111 24.544462,11.0634921 24.544462,9.98412698 L24.544462,9.01269841 C24.544462,6.31428571 24.544462,5.88253968 24.4913675,4.58730159 L24.5975565,4.47936508 C25.7656348,4.47936508 26.0311072,4.47936508 27.3053744,4.37142857 L27.4115634,4.47936508 C27.4115634,5.12698413 27.3584689,8.31111111 27.3584689,9.06666667 C27.3584689,9.4984127 27.3584689,11.0634921 27.4115634,11.3873016 C27.4115634,11.6031746 27.5177523,12.2507937 28.3141694,12.2507937 C28.8451141,12.2507937 29.1105864,11.9269841 29.3760587,11.7111111 L29.3760587,10.2 C29.3760587,9.82222222 29.3229643,6.15238095 29.2698698,4.64126984 L29.3760587,4.53333333 C30.5972315,4.53333333 30.9157984,4.47936508 32.0838767,4.42539683 L32.1900656,4.53333333 C32.1900656,5.72063492 32.1369712,6.36825397 32.1369712,8.14920635 C32.1369712,8.52698413 32.1369712,10.9555556 32.1369712,12.0349206 C32.1369712,13.0603175 32.1900656,13.7619048 32.1900656,14.3015873 L32.0838767,14.4095238 C30.756515,14.4095238 30.5441371,14.4095238 29.4291532,14.4634921 L29.3229643,14.4095238 L29.3760587,13.2761905 Z M36.7030956,14.3015873 C35.4819228,14.3015873 35.1633559,14.3015873 33.8359942,14.3555556 L33.7298053,14.247619 C33.7828997,13.0603175 33.7828997,11.8190476 33.7828997,9.17460317 C33.7828997,7.44761905 33.7828997,5.72063492 33.7828997,4.04761905 C33.7298053,2.15873016 33.6767108,1.56507937 33.6236163,0.647619048 L33.7298053,0.53968254 C34.9509781,0.323809524 35.4288283,0.26984127 36.5438121,0 L36.6500011,0.107936508 C36.6500011,1.18730159 36.6500011,1.88888889 36.6500011,3.45396825 C36.6500011,4.04761905 36.6500011,8.25714286 36.7030956,10.7396825 C36.75619,12.4126984 36.75619,13.3301587 36.8092845,14.1936508 L36.7030956,14.3015873 Z M42.5965817,6.53015873 C41.8001646,6.53015873 41.7470702,6.53015873 41.3223144,6.53015873 L41.3223144,8.9047619 C41.3223144,9.39047619 41.3223144,10.0920635 41.3223144,10.5777778 C41.3223144,11.5492063 41.3223144,12.4666667 42.1718259,12.4666667 C42.4903927,12.4666667 42.6496761,12.3587302 42.7558651,12.3047619 L42.862054,12.4126984 C42.8089596,13.2222222 42.8089596,13.384127 42.7558651,14.247619 L42.6496761,14.4095238 C42.2249204,14.5174603 41.6939757,14.5714286 41.163031,14.5714286 C40.7382752,14.5714286 39.6232914,14.5714286 38.9861577,13.7079365 C38.5083075,13.0603175 38.5083075,12.2507937 38.561402,10.9015873 L38.561402,9.76825397 C38.561402,9.28253968 38.561402,7.01587302 38.561402,6.47619048 C38.2428352,6.47619048 38.0304573,6.47619048 37.658796,6.53015873 L37.5526071,6.42222222 C37.6057015,5.55873016 37.6057015,5.55873016 37.6057015,4.58730159 L37.7118905,4.47936508 C38.0835518,4.47936508 38.1366462,4.47936508 38.561402,4.47936508 C38.561402,4.15555556 38.561402,3.93968254 38.561402,2.21269841 L38.6675909,2.1047619 C39.8887637,1.78095238 40.2073305,1.67301587 41.3223144,1.34920635 L41.4285033,1.45714286 C41.3754089,2.26666667 41.3754089,2.48253968 41.3754089,4.58730159 C42.0125425,4.58730159 42.1718259,4.58730159 42.7027706,4.53333333 L42.8089596,4.64126984 C42.7558651,5.5047619 42.7558651,5.61269841 42.7027706,6.47619048 L42.5965817,6.53015873 Z M46.6848558,14.3555556 C45.5167775,14.3555556 45.0389273,14.3555556 43.76466,14.4095238 L43.6584711,14.3015873 C43.7115655,13.1142857 43.76466,11.9269841 43.76466,9.82222222 C43.76466,6.85396825 43.6584711,5.82857143 43.6053766,4.85714286 L43.7115655,4.74920635 C44.9858328,4.58730159 45.3574941,4.47936508 46.5786669,4.20952381 L46.6848558,4.31746032 C46.6848558,4.58730159 46.6848558,4.85714286 46.6848558,5.07301587 C46.6848558,6.20634921 46.6317614,7.28571429 46.6317614,8.41904762 C46.6317614,10.3619048 46.6848558,12.3047619 46.7910448,14.247619 L46.6848558,14.3555556 Z M46.4193835,2.64444444 C45.3043996,2.75238095 44.9858328,2.80634921 43.8708489,3.02222222 L43.76466,2.91428571 C43.76466,1.94285714 43.76466,1.67301587 43.7115655,0.647619048 L43.8177545,0.53968254 C45.0920217,0.431746032 45.3043996,0.377777778 46.4193835,0.215873016 L46.5255724,0.323809524 C46.472478,1.4031746 46.5255724,1.67301587 46.5255724,2.53650794 L46.4193835,2.64444444 Z" id="Combined-Shape" fill="#1AA5DE"></path>
                    <path d="M6.71536287,20.9705757 C6.23185674,20.5765458 5.69462771,20.069936 4.62016965,20.069936 C3.6531574,20.069936 3.06220547,20.6328358 3.06220547,21.4771855 C3.06220547,22.0963753 3.38454288,22.5466951 3.97549482,22.9970149 C4.13666352,23.1658849 5.15739868,23.8976546 5.37229029,24.0102345 C6.55419416,24.8545842 7.52120641,25.7552239 7.46748351,27.7253731 C7.46748351,29.0200426 7.03770028,30.0332623 6.50047125,30.652452 C5.533459,31.7782516 4.19038643,32.0597015 2.95475966,32.0597015 C2.20263902,32.0597015 1.12818096,31.9471215 0.161168709,31.4405117 L0.0537229029,31.2716418 C0.0537229029,30.8776119 0.107445806,30.4272921 0.107445806,29.9769723 C0.107445806,29.5829424 0.161168709,29.2452026 0.161168709,28.8511727 L0.322337418,28.7948827 C0.967012253,29.4140725 1.7728558,29.7518124 2.63242224,29.7518124 C4.02921772,29.7518124 4.40527804,28.7385928 4.40527804,28.063113 C4.40527804,27.2187633 3.86804901,26.7121535 3.00848256,26.0929638 L2.20263902,25.530064 C1.23562677,24.7982942 0,23.8976546 0,21.7586354 C0,20.3513859 0.483506126,19.3944563 1.02073516,18.8315565 C1.8803016,17.9309168 3.06220547,17.7620469 4.13666352,17.7620469 C5.10367578,17.7620469 6.07068803,17.9309168 6.93025448,18.3812367 L6.98397738,18.5501066 C6.93025448,18.9441365 6.93025448,19.3944563 6.87653157,19.7884861 L6.82280867,20.9142857 L6.71536287,20.9705757 Z M13.0009425,31.0464819 C12.6786051,31.3279318 12.0339303,32.0597015 10.7983035,32.0597015 C9.40150801,32.0597015 8.32704995,30.9339019 8.32704995,28.8511727 C8.32704995,25.9240938 10.7983035,25.2486141 13.0009425,24.7982942 C13.0009425,24.1228145 13.0009425,23.3910448 11.6578699,23.3910448 C10.4222432,23.3910448 9.67012253,23.8976546 9.29406221,24.1791045 L9.1866164,24.1228145 C9.2403393,23.2221748 9.2403393,22.9970149 9.29406221,22.1526652 L9.40150801,21.9837953 C10.4759661,21.4771855 11.8727615,21.3646055 12.5711593,21.3646055 C13.3232799,21.3646055 14.7737983,21.4771855 15.472196,22.715565 C15.9019793,23.5036247 15.9019793,24.3479744 15.8482564,25.9803838 L15.8482564,27.5002132 C15.8482564,29.1326226 15.8482564,30.2584222 16.0094251,31.7782516 L15.9019793,31.8908316 C14.6663525,31.8908316 14.397738,31.8908316 13.269557,31.9471215 L13.1621112,31.8345416 L13.0009425,31.0464819 Z M12.9472196,26.5995736 C12.1413761,26.7121535 10.9594722,26.9373134 10.9594722,28.5134328 C10.9594722,29.3577825 11.3892554,29.8643923 11.9802074,29.8643923 C12.5174364,29.8643923 12.8397738,29.5266525 13.0009425,29.3577825 L12.9472196,26.5995736 Z M21.7040528,23.7287846 C21.1668238,23.7287846 20.8444863,23.7287846 20.5221489,23.7287846 C20.5221489,28.3445629 20.5758718,30.1458422 20.6295947,31.8345416 L20.5221489,31.9471215 C19.1790763,31.9471215 18.9104618,31.9471215 17.6748351,32.0034115 L17.5673893,31.8908316 C17.5673893,31.6656716 17.5673893,31.3842217 17.5673893,31.1590618 C17.6211122,29.8081023 17.6211122,25.473774 17.6211122,23.7287846 C17.1913289,23.7287846 17.0838831,23.7287846 16.7078228,23.7850746 L16.600377,23.6724947 C16.6540999,22.9407249 16.6540999,22.6592751 16.7078228,21.7586354 L16.8152686,21.6460554 C17.1913289,21.7023454 17.2450518,21.7023454 17.6211122,21.7023454 C17.6211122,20.182516 17.5673893,18.9441365 18.1583412,18.1560768 C18.9104618,17.1428571 20.3072573,17.1428571 20.6833176,17.1428571 C21.3279925,17.1428571 21.7577757,17.2554371 21.9726673,17.2554371 L22.0263902,17.3680171 C21.9726673,18.2123667 21.9189444,18.4375267 21.9189444,19.3944563 L21.8114986,19.5070362 C21.7040528,19.4507463 21.5428841,19.3944563 21.3817154,19.3944563 C21.005655,19.3944563 20.7907634,19.5633262 20.6295947,19.7884861 C20.4147031,20.126226 20.4147031,20.5202559 20.4147031,21.7023454 C21.005655,21.7023454 21.1668238,21.7023454 21.7040528,21.6460554 L21.8114986,21.7586354 C21.7577757,22.6029851 21.7577757,22.828145 21.7040528,23.6724947 L21.7040528,23.7287846 Z M25.3034873,27.3313433 C25.3572102,29.0763326 26.2167766,29.9206823 27.6135721,29.9206823 C28.7417531,29.9206823 29.3864279,29.4140725 29.6550424,29.2452026 L29.7624882,29.3014925 C29.7087653,30.1458422 29.7087653,30.4835821 29.6550424,31.3279318 L29.6013195,31.4968017 C29.2252592,31.8345416 28.0433553,32.1159915 26.9688973,32.1159915 C23.7455231,32.1159915 22.4561734,29.9769723 22.4561734,26.7121535 C22.4561734,26.0366738 22.5098963,25.3049041 22.671065,24.5731343 C23.2082941,22.2089552 24.8199811,21.3083156 26.4316682,21.3083156 C26.9688973,21.3083156 27.5061263,21.4208955 27.9896324,21.6460554 C29.7624882,22.4904051 30.0311027,24.2916844 30.0311027,26.2055437 C30.0311027,26.5995736 30.0311027,26.9373134 30.0311027,27.2187633 L29.9236569,27.3313433 L25.3034873,27.3313433 Z M27.3986805,25.473774 C27.3986805,25.1360341 27.3986805,24.8545842 27.3449576,24.4605544 C27.2375118,23.8413646 26.9688973,23.2784648 26.4316682,23.2784648 C26.1630537,23.2784648 25.4109331,23.3910448 25.3572102,25.417484 L27.3986805,25.473774 Z M34.2214892,21.3646055 C34.2214892,21.8149254 34.2214892,21.8712154 34.2214892,22.3215352 C34.6512724,21.9275053 35.2959472,21.3083156 36.3704053,21.3083156 C37.4985862,21.3083156 38.196984,22.0400853 38.5730443,22.6592751 C39.2177191,23.7287846 39.3788878,25.1360341 39.3788878,26.0929638 C39.3788878,27.5002132 39.1639962,30.4835821 36.5852969,31.5530917 C35.7794533,31.8908316 35.2959472,31.8345416 34.2752121,31.8345416 C34.2752121,33.241791 34.328935,35.0430704 34.3826579,35.7748401 L34.2752121,35.88742 C33.8991517,35.88742 33.5230914,35.8311301 33.200754,35.8311301 C32.6098021,35.8311301 32.1262959,35.88742 31.4816211,35.88742 L31.3741753,35.7748401 C31.4278982,34.1987207 31.4278982,32.6788913 31.4278982,31.1027719 C31.4278982,28.006823 31.4278982,24.8545842 31.1592837,21.8149254 L31.2667295,21.7023454 C32.6098021,21.5334755 32.9858624,21.4208955 34.1140434,21.1957356 L34.2214892,21.3646055 Z M34.328935,29.8081023 C34.4363808,29.8081023 34.4901037,29.8081023 34.5975495,29.8081023 L34.7587182,29.8081023 C36.4241282,29.6392324 36.4241282,27.3313433 36.4241282,26.3744136 C36.4241282,25.8678038 36.3704053,24.9671642 36.1017908,24.2916844 C36.0480679,24.1791045 35.7794533,23.6162047 35.1885014,23.6162047 C34.7587182,23.6162047 34.4901037,23.8976546 34.2752121,24.1228145 C34.2752121,26.2055437 34.2752121,27.1061834 34.328935,29.8081023 Z M44.804901,31.0464819 C44.4825636,31.3279318 43.8378888,32.0597015 42.602262,32.0597015 C41.2054665,32.0597015 40.1310085,30.9339019 40.1310085,28.8511727 C40.1310085,25.9240938 42.602262,25.2486141 44.804901,24.7982942 C44.804901,24.1228145 44.804901,23.3910448 43.4618285,23.3910448 C42.2262017,23.3910448 41.4740811,23.8976546 41.0980207,24.1791045 L40.9905749,24.1228145 C41.0442978,23.2221748 41.0442978,22.9970149 41.0980207,22.1526652 L41.2054665,21.9837953 C42.2799246,21.4771855 43.6767201,21.3646055 44.3751178,21.3646055 C45.1272385,21.3646055 46.5777568,21.4771855 47.2761546,22.715565 C47.7059378,23.5036247 47.7059378,24.3479744 47.6522149,25.9803838 L47.6522149,27.5002132 C47.6522149,29.1326226 47.6522149,30.2584222 47.8133836,31.7782516 L47.7059378,31.8908316 C46.470311,31.8908316 46.2016965,31.8908316 45.0735156,31.9471215 L44.9660697,31.8345416 L44.804901,31.0464819 Z M44.7511781,26.5995736 C43.9453346,26.7121535 42.7634307,26.9373134 42.7634307,28.5134328 C42.7634307,29.3577825 43.1932139,29.8643923 43.7841659,29.8643923 C44.3213949,29.8643923 44.6437323,29.5266525 44.804901,29.3577825 L44.804901,26.5995736 L44.7511781,26.5995736 Z M50.2309142,35.88742 C50.7144204,34.7616205 50.8755891,34.0861407 51.5202639,32.2285714 C50.6606975,29.1326226 49.1564562,24.1228145 48.3506126,21.7023454 L48.4580584,21.5897655 C49.801131,21.5897655 50.0697455,21.5334755 51.4128181,21.4771855 L51.5739868,21.5897655 C51.7888784,22.6029851 51.8426013,22.9407249 52.3261074,25.0234542 L53.0245052,27.950533 L53.7766258,24.7982942 C54.1526861,23.3910448 54.1526861,23.2784648 54.5287465,21.6460554 L54.6361923,21.5334755 C55.6569274,21.5334755 55.9255419,21.5334755 56.9462771,21.4771855 L57,21.5897655 C56.5164939,23.1095949 56.4090481,23.5599147 55.2808671,27.3313433 L54.3675778,30.5398721 C53.6154571,33.241791 53.2931197,34.4238806 53.0245052,35.8311301 L52.9170594,35.94371 C51.6814326,35.94371 51.466541,35.94371 50.3920829,36 L50.2309142,35.88742 Z" id="Combined-Shape" fill="#171113"></path>
                </g>
            </g>
        </g>
    </g>
</svg>