<?xml version="1.0" encoding="UTF-8"?>
<svg width="100px" height="100px" viewBox="0 0 100 100" version="1.1" xmlns="http://www.w3.org/2000/svg" xmlns:xlink="http://www.w3.org/1999/xlink">
  <title>icon-mask</title>
  <g id="Icons" stroke="none" stroke-width="1" fill="none" fill-rule="evenodd">
    <g id="icon-mask">
      <path d="M50,100 C22.3857625,100 0,77.6142375 0,50 C0,22.3857625 22.3857625,0 50,0 C77.6142375,0 100,22.3857625 100,50 C100,77.6142375 77.6142375,100 50,100 Z M38.6864805,41.4984127 L37.5714967,36.1555556 C37.1467409,34.1587302 37.1467409,34.1047619 36.934363,33.1333333 L36.8281741,33.0253968 C35.0229621,33.0793651 34.5451119,33.0793651 32.8991833,33.0793651 L32.7929944,33.1873016 C32.7398999,34.0507937 32.7398999,34.9142857 32.6868055,36.6952381 L32.527522,40.7968254 C32.3682386,42.847619 32.3682386,43.1714286 32.2089552,46.247619 L32.3151442,46.3555556 C33.3770336,46.3015873 33.6956004,46.3015873 34.7043953,46.3015873 L34.8105842,46.1936508 C34.8105842,44.7904762 34.8105842,44.3587302 34.9167732,40.4730159 L35.0229621,36.1555556 L36.4034183,42.3079365 C36.6688907,43.6031746 36.9874575,45.0603175 37.2529298,46.247619 L37.3591188,46.3555556 C38.3148192,46.3015873 38.633386,46.3015873 39.5890865,46.3015873 L39.6952754,46.1936508 C39.9076533,45.1142857 40.0669367,44.1428571 40.544787,42.0920635 L41.9252432,35.9936508 L41.9783376,41.0126984 C42.0314321,43.6031746 42.0314321,43.9269841 42.0314321,46.247619 L42.137621,46.3555556 C43.1995104,46.3015873 43.6242662,46.3015873 45.0047224,46.3015873 L45.1109113,46.1936508 C45.0047224,44.3587302 44.9516279,43.5492063 44.7923445,40.0412698 L44.6861556,37.1269841 C44.6330611,35.0761905 44.5799666,34.6984127 44.5799666,33.1333333 L44.4737777,33.0253968 C42.6685657,33.0793651 42.1907155,33.0793651 40.6509759,33.0793651 L40.544787,33.1873016 C40.2793146,34.5365079 40.2262201,34.8603175 39.8545588,36.3174603 L38.6864805,41.4984127 Z M51.3760587,45.2761905 L51.3229643,46.4095238 L51.4291532,46.4634921 C52.5441371,46.4095238 52.756515,46.4095238 54.0838767,46.4095238 L54.1900656,46.3015873 C54.1900656,45.7619048 54.1369712,45.0603175 54.1369712,44.0349206 C54.1369712,42.9555556 54.1369712,40.5269841 54.1369712,40.1492063 C54.1369712,38.368254 54.1900656,37.7206349 54.1900656,36.5333333 L54.0838767,36.4253968 C52.9157984,36.4793651 52.5972315,36.5333333 51.3760587,36.5333333 L51.2698698,36.6412698 C51.3229643,38.152381 51.3760587,41.8222222 51.3760587,42.2 L51.3760587,43.7111111 C51.1105864,43.9269841 50.8451141,44.2507937 50.3141694,44.2507937 C49.5177523,44.2507937 49.4115634,43.6031746 49.4115634,43.3873016 C49.3584689,43.0634921 49.3584689,41.4984127 49.3584689,41.0666667 C49.3584689,40.3111111 49.4115634,37.1269841 49.4115634,36.4793651 L49.3053744,36.3714286 C48.0311072,36.4793651 47.7656348,36.4793651 46.5975565,36.4793651 L46.4913675,36.5873016 C46.544462,37.8825397 46.544462,38.3142857 46.544462,41.0126984 L46.544462,41.984127 C46.544462,43.0634921 46.544462,43.7111111 46.5975565,44.2507937 C46.650651,44.6825397 46.8630288,46.5174603 48.8275242,46.5174603 C50.048697,46.5174603 50.8451141,45.815873 51.3760587,45.2761905 Z M58.7030956,46.3015873 L58.8092845,46.1936508 C58.75619,45.3301587 58.75619,44.4126984 58.7030956,42.7396825 C58.6500011,40.2571429 58.6500011,36.047619 58.6500011,35.4539683 C58.6500011,33.8888889 58.6500011,33.1873016 58.6500011,32.1079365 L58.5438121,32 C57.4288283,32.2698413 56.9509781,32.3238095 55.7298053,32.5396825 L55.6236163,32.647619 C55.6767108,33.5650794 55.7298053,34.1587302 55.7828997,36.047619 C55.7828997,37.7206349 55.7828997,39.447619 55.7828997,41.1746032 C55.7828997,43.8190476 55.7828997,45.0603175 55.7298053,46.247619 L55.8359942,46.3555556 C57.1633559,46.3015873 57.4819228,46.3015873 58.7030956,46.3015873 Z M64.5965817,38.5301587 L64.7027706,38.4761905 C64.7558651,37.6126984 64.7558651,37.5047619 64.8089596,36.6412698 L64.7027706,36.5333333 C64.1718259,36.5873016 64.0125425,36.5873016 63.3754089,36.5873016 C63.3754089,34.4825397 63.3754089,34.2666667 63.4285033,33.4571429 L63.3223144,33.3492063 C62.2073305,33.6730159 61.8887637,33.7809524 60.6675909,34.1047619 L60.561402,34.2126984 C60.561402,35.9396825 60.561402,36.1555556 60.561402,36.4793651 C60.1366462,36.4793651 60.0835518,36.4793651 59.7118905,36.4793651 L59.6057015,36.5873016 C59.6057015,37.5587302 59.6057015,37.5587302 59.5526071,38.4222222 L59.658796,38.5301587 C60.0304573,38.4761905 60.2428352,38.4761905 60.561402,38.4761905 C60.561402,39.015873 60.561402,41.2825397 60.561402,41.768254 L60.561402,42.9015873 C60.5083075,44.2507937 60.5083075,45.0603175 60.9861577,45.7079365 C61.6232914,46.5714286 62.7382752,46.5714286 63.163031,46.5714286 C63.6939757,46.5714286 64.2249204,46.5174603 64.6496761,46.4095238 L64.7558651,46.247619 C64.8089596,45.384127 64.8089596,45.2222222 64.862054,44.4126984 L64.7558651,44.3047619 C64.6496761,44.3587302 64.4903927,44.4666667 64.1718259,44.4666667 C63.3223144,44.4666667 63.3223144,43.5492063 63.3223144,42.5777778 C63.3223144,42.0920635 63.3223144,41.3904762 63.3223144,40.9047619 L63.3223144,38.5301587 C63.7470702,38.5301587 63.8001646,38.5301587 64.5965817,38.5301587 Z M68.6848558,46.3555556 L68.7910448,46.247619 C68.6848558,44.3047619 68.6317614,42.3619048 68.6317614,40.4190476 C68.6317614,39.2857143 68.6848558,38.2063492 68.6848558,37.0730159 C68.6848558,36.8571429 68.6848558,36.5873016 68.6848558,36.3174603 L68.5786669,36.2095238 C67.3574941,36.4793651 66.9858328,36.5873016 65.7115655,36.7492063 L65.6053766,36.8571429 C65.6584711,37.8285714 65.76466,38.8539683 65.76466,41.8222222 C65.76466,43.9269841 65.7115655,45.1142857 65.6584711,46.3015873 L65.76466,46.4095238 C67.0389273,46.3555556 67.5167775,46.3555556 68.6848558,46.3555556 Z M68.4193835,34.6444444 L68.5255724,34.5365079 C68.5255724,33.6730159 68.472478,33.4031746 68.5255724,32.3238095 L68.4193835,32.215873 C67.3043996,32.3777778 67.0920217,32.431746 65.8177545,32.5396825 L65.7115655,32.647619 C65.76466,33.6730159 65.76466,33.9428571 65.76466,34.9142857 L65.8708489,35.0222222 C66.9858328,34.8063492 67.3043996,34.752381 68.4193835,34.6444444 Z M28.7153629,52.9705757 L28.8228087,52.9142857 L28.8765316,51.7884861 C28.9302545,51.3944563 28.9302545,50.9441365 28.9839774,50.5501066 L28.9302545,50.3812367 C28.070688,49.9309168 27.1036758,49.7620469 26.1366635,49.7620469 C25.0622055,49.7620469 23.8803016,49.9309168 23.0207352,50.8315565 C22.4835061,51.3944563 22,52.3513859 22,53.7586354 C22,55.8976546 23.2356268,56.7982942 24.202639,57.530064 L25.0084826,58.0929638 C25.868049,58.7121535 26.405278,59.2187633 26.405278,60.063113 C26.405278,60.7385928 26.0292177,61.7518124 24.6324222,61.7518124 C23.7728558,61.7518124 22.9670123,61.4140725 22.3223374,60.7948827 L22.1611687,60.8511727 C22.1611687,61.2452026 22.1074458,61.5829424 22.1074458,61.9769723 C22.1074458,62.4272921 22.0537229,62.8776119 22.0537229,63.2716418 L22.1611687,63.4405117 C23.128181,63.9471215 24.202639,64.0597015 24.9547597,64.0597015 C26.1903864,64.0597015 27.533459,63.7782516 28.5004713,62.652452 C29.0377003,62.0332623 29.4674835,61.0200426 29.4674835,59.7253731 C29.5212064,57.7552239 28.5541942,56.8545842 27.3722903,56.0102345 C27.1573987,55.8976546 26.1366635,55.1658849 25.9754948,54.9970149 C25.3845429,54.5466951 25.0622055,54.0963753 25.0622055,53.4771855 C25.0622055,52.6328358 25.6531574,52.069936 26.6201697,52.069936 C27.6946277,52.069936 28.2318567,52.5765458 28.7153629,52.9705757 Z M35.0009425,63.0464819 L35.1621112,63.8345416 L35.269557,63.9471215 C36.397738,63.8908316 36.6663525,63.8908316 37.9019793,63.8908316 L38.0094251,63.7782516 C37.8482564,62.2584222 37.8482564,61.1326226 37.8482564,59.5002132 L37.8482564,57.9803838 C37.9019793,56.3479744 37.9019793,55.5036247 37.472196,54.715565 C36.7737983,53.4771855 35.3232799,53.3646055 34.5711593,53.3646055 C33.8727615,53.3646055 32.4759661,53.4771855 31.401508,53.9837953 L31.2940622,54.1526652 C31.2403393,54.9970149 31.2403393,55.2221748 31.1866164,56.1228145 L31.2940622,56.1791045 C31.6701225,55.8976546 32.4222432,55.3910448 33.6578699,55.3910448 C35.0009425,55.3910448 35.0009425,56.1228145 35.0009425,56.7982942 C32.7983035,57.2486141 30.32705,57.9240938 30.32705,60.8511727 C30.32705,62.9339019 31.401508,64.0597015 32.7983035,64.0597015 C34.0339303,64.0597015 34.6786051,63.3279318 35.0009425,63.0464819 Z M34.9472196,58.5995736 L35.0009425,61.3577825 C34.8397738,61.5266525 34.5174364,61.8643923 33.9802074,61.8643923 C33.3892554,61.8643923 32.9594722,61.3577825 32.9594722,60.5134328 C32.9594722,58.9373134 34.1413761,58.7121535 34.9472196,58.5995736 Z M43.7040528,55.7287846 L43.7040528,55.6724947 C43.7577757,54.828145 43.7577757,54.6029851 43.8114986,53.7586354 L43.7040528,53.6460554 C43.1668238,53.7023454 43.005655,53.7023454 42.4147031,53.7023454 C42.4147031,52.5202559 42.4147031,52.126226 42.6295947,51.7884861 C42.7907634,51.5633262 43.005655,51.3944563 43.3817154,51.3944563 C43.5428841,51.3944563 43.7040528,51.4507463 43.8114986,51.5070362 L43.9189444,51.3944563 C43.9189444,50.4375267 43.9726673,50.2123667 44.0263902,49.3680171 L43.9726673,49.2554371 C43.7577757,49.2554371 43.3279925,49.1428571 42.6833176,49.1428571 C42.3072573,49.1428571 40.9104618,49.1428571 40.1583412,50.1560768 C39.5673893,50.9441365 39.6211122,52.182516 39.6211122,53.7023454 C39.2450518,53.7023454 39.1913289,53.7023454 38.8152686,53.6460554 L38.7078228,53.7586354 C38.6540999,54.6592751 38.6540999,54.9407249 38.600377,55.6724947 L38.7078228,55.7850746 C39.0838831,55.7287846 39.1913289,55.7287846 39.6211122,55.7287846 C39.6211122,57.473774 39.6211122,61.8081023 39.5673893,63.1590618 C39.5673893,63.3842217 39.5673893,63.6656716 39.5673893,63.8908316 L39.6748351,64.0034115 C40.9104618,63.9471215 41.1790763,63.9471215 42.5221489,63.9471215 L42.6295947,63.8345416 C42.5758718,62.1458422 42.5221489,60.3445629 42.5221489,55.7287846 C42.8444863,55.7287846 43.1668238,55.7287846 43.7040528,55.7287846 Z M47.3034873,59.3313433 L51.9236569,59.3313433 L52.0311027,59.2187633 C52.0311027,58.9373134 52.0311027,58.5995736 52.0311027,58.2055437 C52.0311027,56.2916844 51.7624882,54.4904051 49.9896324,53.6460554 C49.5061263,53.4208955 48.9688973,53.3083156 48.4316682,53.3083156 C46.8199811,53.3083156 45.2082941,54.2089552 44.671065,56.5731343 C44.5098963,57.3049041 44.4561734,58.0366738 44.4561734,58.7121535 C44.4561734,61.9769723 45.7455231,64.1159915 48.9688973,64.1159915 C50.0433553,64.1159915 51.2252592,63.8345416 51.6013195,63.4968017 L51.6550424,63.3279318 C51.7087653,62.4835821 51.7087653,62.1458422 51.7624882,61.3014925 L51.6550424,61.2452026 C51.3864279,61.4140725 50.7417531,61.9206823 49.6135721,61.9206823 C48.2167766,61.9206823 47.3572102,61.0763326 47.3034873,59.3313433 Z M49.3986805,57.473774 L47.3572102,57.417484 C47.4109331,55.3910448 48.1630537,55.2784648 48.4316682,55.2784648 C48.9688973,55.2784648 49.2375118,55.8413646 49.3449576,56.4605544 C49.3986805,56.8545842 49.3986805,57.1360341 49.3986805,57.473774 Z M56.2214892,53.3646055 L56.1140434,53.1957356 C54.9858624,53.4208955 54.6098021,53.5334755 53.2667295,53.7023454 L53.1592837,53.8149254 C53.4278982,56.8545842 53.4278982,60.006823 53.4278982,63.1027719 C53.4278982,64.6788913 53.4278982,66.1987207 53.3741753,67.7748401 L53.4816211,67.88742 C54.1262959,67.88742 54.6098021,67.8311301 55.200754,67.8311301 C55.5230914,67.8311301 55.8991517,67.88742 56.2752121,67.88742 L56.3826579,67.7748401 C56.328935,67.0430704 56.2752121,65.241791 56.2752121,63.8345416 C57.2959472,63.8345416 57.7794533,63.8908316 58.5852969,63.5530917 C61.1639962,62.4835821 61.3788878,59.5002132 61.3788878,58.0929638 C61.3788878,57.1360341 61.2177191,55.7287846 60.5730443,54.6592751 C60.196984,54.0400853 59.4985862,53.3083156 58.3704053,53.3083156 C57.2959472,53.3083156 56.6512724,53.9275053 56.2214892,54.3215352 C56.2214892,53.8712154 56.2214892,53.8149254 56.2214892,53.3646055 Z M56.328935,61.8081023 C56.2752121,59.1061834 56.2752121,58.2055437 56.2752121,56.1228145 C56.4901037,55.8976546 56.7587182,55.6162047 57.1885014,55.6162047 C57.7794533,55.6162047 58.0480679,56.1791045 58.1017908,56.2916844 C58.3704053,56.9671642 58.4241282,57.8678038 58.4241282,58.3744136 C58.4241282,59.3313433 58.4241282,61.6392324 56.7587182,61.8081023 L56.5975495,61.8081023 C56.4901037,61.8081023 56.4363808,61.8081023 56.328935,61.8081023 Z M66.804901,63.0464819 L66.9660697,63.8345416 L67.0735156,63.9471215 C68.2016965,63.8908316 68.470311,63.8908316 69.7059378,63.8908316 L69.8133836,63.7782516 C69.6522149,62.2584222 69.6522149,61.1326226 69.6522149,59.5002132 L69.6522149,57.9803838 C69.7059378,56.3479744 69.7059378,55.5036247 69.2761546,54.715565 C68.5777568,53.4771855 67.1272385,53.3646055 66.3751178,53.3646055 C65.6767201,53.3646055 64.2799246,53.4771855 63.2054665,53.9837953 L63.0980207,54.1526652 C63.0442978,54.9970149 63.0442978,55.2221748 62.9905749,56.1228145 L63.0980207,56.1791045 C63.4740811,55.8976546 64.2262017,55.3910448 65.4618285,55.3910448 C66.804901,55.3910448 66.804901,56.1228145 66.804901,56.7982942 C64.602262,57.2486141 62.1310085,57.9240938 62.1310085,60.8511727 C62.1310085,62.9339019 63.2054665,64.0597015 64.602262,64.0597015 C65.8378888,64.0597015 66.4825636,63.3279318 66.804901,63.0464819 Z M66.7511781,58.5995736 L66.804901,58.5995736 L66.804901,61.3577825 C66.6437323,61.5266525 66.3213949,61.8643923 65.7841659,61.8643923 C65.1932139,61.8643923 64.7634307,61.3577825 64.7634307,60.5134328 C64.7634307,58.9373134 65.9453346,58.7121535 66.7511781,58.5995736 Z M72.2309142,67.88742 L72.3920829,68 C73.466541,67.94371 73.6814326,67.94371 74.9170594,67.94371 L75.0245052,67.8311301 C75.2931197,66.4238806 75.6154571,65.241791 76.3675778,62.5398721 L77.2808671,59.3313433 C78.4090481,55.5599147 78.5164939,55.1095949 79,53.5897655 L78.9462771,53.4771855 C77.9255419,53.5334755 77.6569274,53.5334755 76.6361923,53.5334755 L76.5287465,53.6460554 C76.1526861,55.2784648 76.1526861,55.3910448 75.7766258,56.7982942 L75.0245052,59.950533 L74.3261074,57.0234542 C73.8426013,54.9407249 73.7888784,54.6029851 73.5739868,53.5897655 L73.4128181,53.4771855 C72.0697455,53.5334755 71.801131,53.5897655 70.4580584,53.5897655 L70.3506126,53.7023454 C71.1564562,56.1228145 72.6606975,61.1326226 73.5202639,64.2285714 C72.8755891,66.0861407 72.7144204,66.7616205 72.2309142,67.88742 Z" id="Combined-Shape" fill="#D5D5D5"></path>
      <g id="Group-2" transform="translate(22.000000, 32.000000)">
        <g id="Group"></g>
      </g>
    </g>
  </g>
</svg>